<mxfile host="app.diagrams.net" modified="2021-09-27T09:31:02.464Z" agent="5.0 (Windows NT 10.0; Win64; x64) AppleWebKit/537.36 (KHTML, like Gecko) Chrome/93.0.4577.82 Safari/537.36" etag="TVov5BV6p0Bxt4shrSw8" version="15.3.4" type="github">
  <diagram name="Page-1" id="2cc2dc42-3aac-f2a9-1cec-7a8b7cbee084">
    <mxGraphModel dx="1673" dy="867" grid="1" gridSize="10" guides="1" tooltips="1" connect="1" arrows="1" fold="1" page="1" pageScale="1" pageWidth="1100" pageHeight="850" background="#ffffff" math="0" shadow="0">
      <root>
        <mxCell id="0" />
        <mxCell id="1" parent="0" />
        <mxCell id="Og6jKwc0oRyhOUCK2mhS-77" value="" style="group" vertex="1" connectable="0" parent="1">
          <mxGeometry x="120" y="40" width="940" height="920" as="geometry" />
        </mxCell>
        <mxCell id="Og6jKwc0oRyhOUCK2mhS-76" value="" style="rounded=0;whiteSpace=wrap;html=1;hachureGap=4;pointerEvents=0;" vertex="1" parent="Og6jKwc0oRyhOUCK2mhS-77">
          <mxGeometry width="920" height="760" as="geometry" />
        </mxCell>
        <mxCell id="Og6jKwc0oRyhOUCK2mhS-4" value="" style="rounded=0;whiteSpace=wrap;html=1;hachureGap=4;pointerEvents=0;" vertex="1" parent="Og6jKwc0oRyhOUCK2mhS-77">
          <mxGeometry x="320" y="40" width="280" height="40" as="geometry" />
        </mxCell>
        <mxCell id="Og6jKwc0oRyhOUCK2mhS-6" value="Tên lớp: Bệnh nhân" style="rounded=0;whiteSpace=wrap;html=1;hachureGap=4;pointerEvents=0;align=left;" vertex="1" parent="Og6jKwc0oRyhOUCK2mhS-77">
          <mxGeometry x="40" y="40" width="280" height="40" as="geometry" />
        </mxCell>
        <mxCell id="Og6jKwc0oRyhOUCK2mhS-7" value="" style="rounded=0;whiteSpace=wrap;html=1;hachureGap=4;pointerEvents=0;" vertex="1" parent="Og6jKwc0oRyhOUCK2mhS-77">
          <mxGeometry x="600" y="40" width="280" height="40" as="geometry" />
        </mxCell>
        <mxCell id="Og6jKwc0oRyhOUCK2mhS-8" value="Mô tả: Cá nhân cần được hoặc đã được chăm sóc y tế" style="rounded=0;whiteSpace=wrap;html=1;hachureGap=4;pointerEvents=0;" vertex="1" parent="Og6jKwc0oRyhOUCK2mhS-77">
          <mxGeometry x="40" y="80" width="560" height="40" as="geometry" />
        </mxCell>
        <mxCell id="Og6jKwc0oRyhOUCK2mhS-9" value="" style="rounded=0;whiteSpace=wrap;html=1;hachureGap=4;pointerEvents=0;" vertex="1" parent="Og6jKwc0oRyhOUCK2mhS-77">
          <mxGeometry x="600" y="80" width="280" height="40" as="geometry" />
        </mxCell>
        <mxCell id="Og6jKwc0oRyhOUCK2mhS-10" value="&lt;blockquote style=&quot;margin: 0 0 0 40px ; border: none ; padding: 0px&quot;&gt;&lt;blockquote style=&quot;margin: 0 0 0 40px ; border: none ; padding: 0px&quot;&gt;&lt;blockquote style=&quot;margin: 0 0 0 40px ; border: none ; padding: 0px&quot;&gt;&lt;font style=&quot;font-size: 18px&quot;&gt;Trách nghiệm&lt;/font&gt;&lt;/blockquote&gt;&lt;blockquote style=&quot;margin: 0 0 0 40px ; border: none ; padding: 0px&quot;&gt;&lt;font size=&quot;3&quot;&gt;&lt;br&gt;&lt;/font&gt;&lt;/blockquote&gt;&lt;/blockquote&gt;&lt;blockquote style=&quot;margin: 0 0 0 40px ; border: none ; padding: 0px&quot;&gt;&lt;blockquote style=&quot;margin: 0 0 0 40px ; border: none ; padding: 0px&quot;&gt;&lt;font size=&quot;3&quot;&gt;Tạo cuộc hẹn&lt;/font&gt;&lt;/blockquote&gt;&lt;/blockquote&gt;&lt;blockquote style=&quot;margin: 0 0 0 40px ; border: none ; padding: 0px&quot;&gt;&lt;blockquote style=&quot;margin: 0 0 0 40px ; border: none ; padding: 0px&quot;&gt;&lt;font size=&quot;3&quot;&gt;Đặt cuộc gặp sau cùng&lt;/font&gt;&lt;/blockquote&gt;&lt;/blockquote&gt;&lt;blockquote style=&quot;margin: 0 0 0 40px ; border: none ; padding: 0px&quot;&gt;&lt;blockquote style=&quot;margin: 0 0 0 40px ; border: none ; padding: 0px&quot;&gt;&lt;font size=&quot;3&quot;&gt;Thay đổi trạng thái&lt;/font&gt;&lt;/blockquote&gt;&lt;/blockquote&gt;&lt;blockquote style=&quot;margin: 0 0 0 40px ; border: none ; padding: 0px&quot;&gt;&lt;blockquote style=&quot;margin: 0 0 0 40px ; border: none ; padding: 0px&quot;&gt;&lt;font size=&quot;3&quot;&gt;Cung cấp hồ sơ bệnh án&lt;/font&gt;&lt;/blockquote&gt;&lt;/blockquote&gt;&lt;/blockquote&gt;" style="rounded=0;whiteSpace=wrap;html=1;hachureGap=4;pointerEvents=0;align=left;" vertex="1" parent="Og6jKwc0oRyhOUCK2mhS-77">
          <mxGeometry x="40" y="120" width="420" height="240" as="geometry" />
        </mxCell>
        <mxCell id="Og6jKwc0oRyhOUCK2mhS-11" value="&lt;div style=&quot;text-align: left&quot;&gt;&lt;span style=&quot;font-size: 18px&quot;&gt;Cộng tác&lt;/span&gt;&lt;/div&gt;&lt;font&gt;&lt;div style=&quot;text-align: left&quot;&gt;&lt;br&gt;&lt;/div&gt;&lt;font style=&quot;font-size: 14px&quot;&gt;&lt;div style=&quot;text-align: left&quot;&gt;&lt;span&gt;Cuộc hẹn&lt;/span&gt;&lt;/div&gt;&lt;/font&gt;&lt;div style=&quot;text-align: left&quot;&gt;&lt;span&gt;................................................&lt;/span&gt;&lt;/div&gt;&lt;div style=&quot;text-align: left&quot;&gt;&lt;span&gt;................................................&lt;/span&gt;&lt;/div&gt;&lt;div style=&quot;text-align: left&quot;&gt;&lt;span&gt;................................................&lt;/span&gt;&lt;/div&gt;&lt;div style=&quot;text-align: left&quot;&gt;&lt;span&gt;&lt;font size=&quot;3&quot;&gt;Hồ sơ bệnh án&lt;/font&gt;&lt;/span&gt;&lt;/div&gt;&lt;/font&gt;" style="rounded=0;whiteSpace=wrap;html=1;hachureGap=4;pointerEvents=0;" vertex="1" parent="Og6jKwc0oRyhOUCK2mhS-77">
          <mxGeometry x="460" y="120" width="420" height="240" as="geometry" />
        </mxCell>
        <mxCell id="Og6jKwc0oRyhOUCK2mhS-13" value="" style="rounded=0;whiteSpace=wrap;html=1;hachureGap=4;pointerEvents=0;" vertex="1" parent="Og6jKwc0oRyhOUCK2mhS-77">
          <mxGeometry x="320" y="40" width="280" height="40" as="geometry" />
        </mxCell>
        <mxCell id="Og6jKwc0oRyhOUCK2mhS-14" value="" style="rounded=0;whiteSpace=wrap;html=1;hachureGap=4;pointerEvents=0;" vertex="1" parent="Og6jKwc0oRyhOUCK2mhS-77">
          <mxGeometry x="600" y="40" width="280" height="40" as="geometry" />
        </mxCell>
        <mxCell id="Og6jKwc0oRyhOUCK2mhS-15" value="ID:1" style="rounded=0;whiteSpace=wrap;html=1;hachureGap=4;pointerEvents=0;align=left;" vertex="1" parent="Og6jKwc0oRyhOUCK2mhS-77">
          <mxGeometry x="320" y="40" width="280" height="40" as="geometry" />
        </mxCell>
        <mxCell id="Og6jKwc0oRyhOUCK2mhS-16" value="Kiểu: Cụ thể, miền" style="rounded=0;whiteSpace=wrap;html=1;hachureGap=4;pointerEvents=0;align=left;" vertex="1" parent="Og6jKwc0oRyhOUCK2mhS-77">
          <mxGeometry x="600" y="40" width="280" height="40" as="geometry" />
        </mxCell>
        <mxCell id="Og6jKwc0oRyhOUCK2mhS-17" value="" style="rounded=0;whiteSpace=wrap;html=1;hachureGap=4;pointerEvents=0;" vertex="1" parent="Og6jKwc0oRyhOUCK2mhS-77">
          <mxGeometry x="600" y="80" width="280" height="40" as="geometry" />
        </mxCell>
        <mxCell id="Og6jKwc0oRyhOUCK2mhS-20" value="THSD liên kết 2" style="rounded=0;whiteSpace=wrap;html=1;hachureGap=4;pointerEvents=0;" vertex="1" parent="Og6jKwc0oRyhOUCK2mhS-77">
          <mxGeometry x="600" y="80" width="280" height="40" as="geometry" />
        </mxCell>
        <mxCell id="Og6jKwc0oRyhOUCK2mhS-52" value="" style="rounded=0;whiteSpace=wrap;html=1;hachureGap=4;pointerEvents=0;" vertex="1" parent="Og6jKwc0oRyhOUCK2mhS-77">
          <mxGeometry x="40" y="400" width="840" height="160" as="geometry" />
        </mxCell>
        <mxCell id="Og6jKwc0oRyhOUCK2mhS-53" value="" style="rounded=0;whiteSpace=wrap;html=1;hachureGap=4;pointerEvents=0;" vertex="1" parent="Og6jKwc0oRyhOUCK2mhS-77">
          <mxGeometry x="40" y="560" width="840" height="160" as="geometry" />
        </mxCell>
        <mxCell id="Og6jKwc0oRyhOUCK2mhS-54" value="&lt;font style=&quot;font-size: 18px&quot;&gt;Thuộc tính:&lt;/font&gt;" style="text;html=1;strokeColor=none;fillColor=none;align=center;verticalAlign=middle;whiteSpace=wrap;rounded=0;hachureGap=4;pointerEvents=0;" vertex="1" parent="Og6jKwc0oRyhOUCK2mhS-77">
          <mxGeometry x="60" y="410" width="120" height="20" as="geometry" />
        </mxCell>
        <mxCell id="Og6jKwc0oRyhOUCK2mhS-55" value="&lt;span style=&quot;font-size: 14px&quot;&gt;Tên (text)&lt;/span&gt;" style="text;html=1;strokeColor=none;fillColor=none;align=left;verticalAlign=middle;whiteSpace=wrap;rounded=0;hachureGap=4;pointerEvents=0;" vertex="1" parent="Og6jKwc0oRyhOUCK2mhS-77">
          <mxGeometry x="80" y="450" width="100" height="20" as="geometry" />
        </mxCell>
        <mxCell id="Og6jKwc0oRyhOUCK2mhS-56" value="&lt;span style=&quot;font-size: 14px&quot;&gt;Tuổi (number)&lt;/span&gt;" style="text;html=1;strokeColor=none;fillColor=none;align=left;verticalAlign=middle;whiteSpace=wrap;rounded=0;hachureGap=4;pointerEvents=0;" vertex="1" parent="Og6jKwc0oRyhOUCK2mhS-77">
          <mxGeometry x="80" y="470" width="100" height="20" as="geometry" />
        </mxCell>
        <mxCell id="Og6jKwc0oRyhOUCK2mhS-57" value="&lt;span style=&quot;font-size: 14px&quot;&gt;Sở thích (text)&lt;/span&gt;" style="text;html=1;strokeColor=none;fillColor=none;align=left;verticalAlign=middle;whiteSpace=wrap;rounded=0;hachureGap=4;pointerEvents=0;" vertex="1" parent="Og6jKwc0oRyhOUCK2mhS-77">
          <mxGeometry x="80" y="490" width="100" height="20" as="geometry" />
        </mxCell>
        <mxCell id="Og6jKwc0oRyhOUCK2mhS-58" value="&lt;span style=&quot;font-size: 14px&quot;&gt;Nhóm máu: (text)&lt;/span&gt;" style="text;html=1;strokeColor=none;fillColor=none;align=left;verticalAlign=middle;whiteSpace=wrap;rounded=0;hachureGap=4;pointerEvents=0;" vertex="1" parent="Og6jKwc0oRyhOUCK2mhS-77">
          <mxGeometry x="80" y="510" width="120" height="20" as="geometry" />
        </mxCell>
        <mxCell id="Og6jKwc0oRyhOUCK2mhS-59" value="&lt;span style=&quot;font-size: 14px&quot;&gt;Nghề nghiệp (text)&lt;/span&gt;" style="text;html=1;strokeColor=none;fillColor=none;align=left;verticalAlign=middle;whiteSpace=wrap;rounded=0;hachureGap=4;pointerEvents=0;" vertex="1" parent="Og6jKwc0oRyhOUCK2mhS-77">
          <mxGeometry x="535" y="450" width="125" height="20" as="geometry" />
        </mxCell>
        <mxCell id="Og6jKwc0oRyhOUCK2mhS-61" value="&lt;font style=&quot;font-size: 14px&quot;&gt;Hãng bảo hiểm (text)&lt;/font&gt;" style="text;html=1;align=left;verticalAlign=middle;resizable=0;points=[];autosize=1;strokeColor=none;fillColor=none;" vertex="1" parent="Og6jKwc0oRyhOUCK2mhS-77">
          <mxGeometry x="535" y="475" width="150" height="20" as="geometry" />
        </mxCell>
        <mxCell id="Og6jKwc0oRyhOUCK2mhS-63" value="&lt;font style=&quot;font-size: 14px&quot;&gt;Địa chỉ (text)&lt;/font&gt;" style="text;html=1;align=left;verticalAlign=middle;resizable=0;points=[];autosize=1;strokeColor=none;fillColor=none;" vertex="1" parent="Og6jKwc0oRyhOUCK2mhS-77">
          <mxGeometry x="535" y="495" width="90" height="20" as="geometry" />
        </mxCell>
        <mxCell id="Og6jKwc0oRyhOUCK2mhS-64" value="&lt;font style=&quot;font-size: 14px&quot;&gt;Điện thoại (number)&lt;/font&gt;" style="text;html=1;align=left;verticalAlign=middle;resizable=0;points=[];autosize=1;strokeColor=none;fillColor=none;" vertex="1" parent="Og6jKwc0oRyhOUCK2mhS-77">
          <mxGeometry x="535" y="515" width="140" height="20" as="geometry" />
        </mxCell>
        <mxCell id="Og6jKwc0oRyhOUCK2mhS-65" value="&lt;span style=&quot;font-size: 18px&quot;&gt;Quan hệ:&lt;/span&gt;" style="text;html=1;strokeColor=none;fillColor=none;align=left;verticalAlign=middle;whiteSpace=wrap;rounded=0;hachureGap=4;pointerEvents=0;" vertex="1" parent="Og6jKwc0oRyhOUCK2mhS-77">
          <mxGeometry x="80" y="560" width="90" height="20" as="geometry" />
        </mxCell>
        <mxCell id="Og6jKwc0oRyhOUCK2mhS-67" value="&lt;span style=&quot;font-size: 14px&quot;&gt;Khái quát :&amp;nbsp;&lt;/span&gt;" style="text;html=1;strokeColor=none;fillColor=none;align=left;verticalAlign=middle;whiteSpace=wrap;rounded=0;hachureGap=4;pointerEvents=0;" vertex="1" parent="Og6jKwc0oRyhOUCK2mhS-77">
          <mxGeometry x="80" y="600" width="100" height="20" as="geometry" />
        </mxCell>
        <mxCell id="Og6jKwc0oRyhOUCK2mhS-69" value="&lt;span style=&quot;font-size: 14px&quot;&gt;Tổng hợp&lt;/span&gt;" style="text;html=1;strokeColor=none;fillColor=none;align=left;verticalAlign=middle;whiteSpace=wrap;rounded=0;hachureGap=4;pointerEvents=0;" vertex="1" parent="Og6jKwc0oRyhOUCK2mhS-77">
          <mxGeometry x="80" y="630" width="100" height="20" as="geometry" />
        </mxCell>
        <mxCell id="Og6jKwc0oRyhOUCK2mhS-70" value="&lt;span style=&quot;font-size: 14px&quot;&gt;Liên kết khác&lt;/span&gt;" style="text;html=1;strokeColor=none;fillColor=none;align=left;verticalAlign=middle;whiteSpace=wrap;rounded=0;hachureGap=4;pointerEvents=0;" vertex="1" parent="Og6jKwc0oRyhOUCK2mhS-77">
          <mxGeometry x="80" y="660" width="120" height="20" as="geometry" />
        </mxCell>
        <mxCell id="Og6jKwc0oRyhOUCK2mhS-72" value="&lt;span style=&quot;font-size: 14px&quot;&gt;Người&lt;/span&gt;" style="text;html=1;strokeColor=none;fillColor=none;align=left;verticalAlign=middle;whiteSpace=wrap;rounded=0;hachureGap=4;pointerEvents=0;" vertex="1" parent="Og6jKwc0oRyhOUCK2mhS-77">
          <mxGeometry x="200" y="600" width="100" height="20" as="geometry" />
        </mxCell>
        <mxCell id="Og6jKwc0oRyhOUCK2mhS-73" value="&lt;span style=&quot;font-size: 14px&quot;&gt;Cuộc hẹn&lt;/span&gt;" style="text;html=1;strokeColor=none;fillColor=none;align=left;verticalAlign=middle;whiteSpace=wrap;rounded=0;hachureGap=4;pointerEvents=0;" vertex="1" parent="Og6jKwc0oRyhOUCK2mhS-77">
          <mxGeometry x="200" y="660" width="100" height="20" as="geometry" />
        </mxCell>
        <mxCell id="Og6jKwc0oRyhOUCK2mhS-74" value="&lt;span style=&quot;font-size: 14px&quot;&gt;Hồ sơ bệnh án&lt;/span&gt;" style="text;html=1;strokeColor=none;fillColor=none;align=left;verticalAlign=middle;whiteSpace=wrap;rounded=0;hachureGap=4;pointerEvents=0;" vertex="1" parent="Og6jKwc0oRyhOUCK2mhS-77">
          <mxGeometry x="200" y="630" width="100" height="20" as="geometry" />
        </mxCell>
        <mxCell id="Og6jKwc0oRyhOUCK2mhS-78" value="&lt;font style=&quot;font-size: 14px&quot;&gt;Mặt Trước&lt;/font&gt;" style="text;html=1;strokeColor=none;fillColor=none;align=left;verticalAlign=middle;whiteSpace=wrap;rounded=0;hachureGap=4;pointerEvents=0;" vertex="1" parent="Og6jKwc0oRyhOUCK2mhS-77">
          <mxGeometry x="40" y="10" width="110" height="20" as="geometry" />
        </mxCell>
        <mxCell id="Og6jKwc0oRyhOUCK2mhS-79" value="&lt;font style=&quot;font-size: 14px&quot;&gt;Mặt Sau&lt;/font&gt;" style="text;html=1;strokeColor=none;fillColor=none;align=left;verticalAlign=middle;whiteSpace=wrap;rounded=0;hachureGap=4;pointerEvents=0;" vertex="1" parent="Og6jKwc0oRyhOUCK2mhS-77">
          <mxGeometry x="40" y="375" width="110" height="20" as="geometry" />
        </mxCell>
        <mxCell id="Og6jKwc0oRyhOUCK2mhS-120" value="" style="group" vertex="1" connectable="0" parent="Og6jKwc0oRyhOUCK2mhS-77">
          <mxGeometry y="950" width="920" height="760" as="geometry" />
        </mxCell>
        <mxCell id="Og6jKwc0oRyhOUCK2mhS-121" value="" style="rounded=0;whiteSpace=wrap;html=1;hachureGap=4;pointerEvents=0;" vertex="1" parent="Og6jKwc0oRyhOUCK2mhS-120">
          <mxGeometry width="920" height="760" as="geometry" />
        </mxCell>
        <mxCell id="Og6jKwc0oRyhOUCK2mhS-122" value="" style="rounded=0;whiteSpace=wrap;html=1;hachureGap=4;pointerEvents=0;" vertex="1" parent="Og6jKwc0oRyhOUCK2mhS-120">
          <mxGeometry x="320" y="40" width="280" height="40" as="geometry" />
        </mxCell>
        <mxCell id="Og6jKwc0oRyhOUCK2mhS-123" value="Tên lớp: Hãng bảo hiểm" style="rounded=0;whiteSpace=wrap;html=1;hachureGap=4;pointerEvents=0;align=left;" vertex="1" parent="Og6jKwc0oRyhOUCK2mhS-120">
          <mxGeometry x="40" y="40" width="280" height="40" as="geometry" />
        </mxCell>
        <mxCell id="Og6jKwc0oRyhOUCK2mhS-124" value="" style="rounded=0;whiteSpace=wrap;html=1;hachureGap=4;pointerEvents=0;" vertex="1" parent="Og6jKwc0oRyhOUCK2mhS-120">
          <mxGeometry x="600" y="40" width="280" height="40" as="geometry" />
        </mxCell>
        <mxCell id="Og6jKwc0oRyhOUCK2mhS-125" value="Mô tả: Công ty cung cấp dịch vụ bảo hiểm" style="rounded=0;whiteSpace=wrap;html=1;hachureGap=4;pointerEvents=0;" vertex="1" parent="Og6jKwc0oRyhOUCK2mhS-120">
          <mxGeometry x="40" y="80" width="560" height="40" as="geometry" />
        </mxCell>
        <mxCell id="Og6jKwc0oRyhOUCK2mhS-126" value="" style="rounded=0;whiteSpace=wrap;html=1;hachureGap=4;pointerEvents=0;" vertex="1" parent="Og6jKwc0oRyhOUCK2mhS-120">
          <mxGeometry x="600" y="80" width="280" height="40" as="geometry" />
        </mxCell>
        <mxCell id="Og6jKwc0oRyhOUCK2mhS-127" value="&lt;blockquote style=&quot;margin: 0 0 0 40px ; border: none ; padding: 0px&quot;&gt;&lt;blockquote style=&quot;margin: 0 0 0 40px ; border: none ; padding: 0px&quot;&gt;&lt;blockquote style=&quot;margin: 0 0 0 40px ; border: none ; padding: 0px&quot;&gt;&lt;br&gt;&lt;/blockquote&gt;&lt;/blockquote&gt;&lt;/blockquote&gt;" style="rounded=0;whiteSpace=wrap;html=1;hachureGap=4;pointerEvents=0;align=left;" vertex="1" parent="Og6jKwc0oRyhOUCK2mhS-120">
          <mxGeometry x="40" y="120" width="420" height="240" as="geometry" />
        </mxCell>
        <mxCell id="Og6jKwc0oRyhOUCK2mhS-128" value="&lt;div style=&quot;text-align: left&quot;&gt;&lt;br&gt;&lt;/div&gt;" style="rounded=0;whiteSpace=wrap;html=1;hachureGap=4;pointerEvents=0;" vertex="1" parent="Og6jKwc0oRyhOUCK2mhS-120">
          <mxGeometry x="460" y="120" width="420" height="240" as="geometry" />
        </mxCell>
        <mxCell id="Og6jKwc0oRyhOUCK2mhS-129" value="" style="rounded=0;whiteSpace=wrap;html=1;hachureGap=4;pointerEvents=0;" vertex="1" parent="Og6jKwc0oRyhOUCK2mhS-120">
          <mxGeometry x="320" y="40" width="280" height="40" as="geometry" />
        </mxCell>
        <mxCell id="Og6jKwc0oRyhOUCK2mhS-130" value="" style="rounded=0;whiteSpace=wrap;html=1;hachureGap=4;pointerEvents=0;" vertex="1" parent="Og6jKwc0oRyhOUCK2mhS-120">
          <mxGeometry x="600" y="40" width="280" height="40" as="geometry" />
        </mxCell>
        <mxCell id="Og6jKwc0oRyhOUCK2mhS-131" value="ID:2" style="rounded=0;whiteSpace=wrap;html=1;hachureGap=4;pointerEvents=0;align=left;" vertex="1" parent="Og6jKwc0oRyhOUCK2mhS-120">
          <mxGeometry x="320" y="40" width="280" height="40" as="geometry" />
        </mxCell>
        <mxCell id="Og6jKwc0oRyhOUCK2mhS-132" value="Kiểu: Cụ thể, miền" style="rounded=0;whiteSpace=wrap;html=1;hachureGap=4;pointerEvents=0;align=left;" vertex="1" parent="Og6jKwc0oRyhOUCK2mhS-120">
          <mxGeometry x="600" y="40" width="280" height="40" as="geometry" />
        </mxCell>
        <mxCell id="Og6jKwc0oRyhOUCK2mhS-133" value="" style="rounded=0;whiteSpace=wrap;html=1;hachureGap=4;pointerEvents=0;" vertex="1" parent="Og6jKwc0oRyhOUCK2mhS-120">
          <mxGeometry x="600" y="80" width="280" height="40" as="geometry" />
        </mxCell>
        <mxCell id="Og6jKwc0oRyhOUCK2mhS-134" value="THSD liên kết 2" style="rounded=0;whiteSpace=wrap;html=1;hachureGap=4;pointerEvents=0;" vertex="1" parent="Og6jKwc0oRyhOUCK2mhS-120">
          <mxGeometry x="600" y="80" width="280" height="40" as="geometry" />
        </mxCell>
        <mxCell id="Og6jKwc0oRyhOUCK2mhS-135" value="" style="rounded=0;whiteSpace=wrap;html=1;hachureGap=4;pointerEvents=0;" vertex="1" parent="Og6jKwc0oRyhOUCK2mhS-120">
          <mxGeometry x="40" y="400" width="840" height="160" as="geometry" />
        </mxCell>
        <mxCell id="Og6jKwc0oRyhOUCK2mhS-136" value="" style="rounded=0;whiteSpace=wrap;html=1;hachureGap=4;pointerEvents=0;" vertex="1" parent="Og6jKwc0oRyhOUCK2mhS-120">
          <mxGeometry x="40" y="560" width="840" height="160" as="geometry" />
        </mxCell>
        <mxCell id="Og6jKwc0oRyhOUCK2mhS-137" value="&lt;font style=&quot;font-size: 18px&quot;&gt;Thuộc tính:&lt;/font&gt;" style="text;html=1;strokeColor=none;fillColor=none;align=center;verticalAlign=middle;whiteSpace=wrap;rounded=0;hachureGap=4;pointerEvents=0;" vertex="1" parent="Og6jKwc0oRyhOUCK2mhS-120">
          <mxGeometry x="60" y="410" width="120" height="20" as="geometry" />
        </mxCell>
        <mxCell id="Og6jKwc0oRyhOUCK2mhS-138" value="&lt;span style=&quot;font-size: 14px&quot;&gt;Tên (text)&lt;/span&gt;" style="text;html=1;strokeColor=none;fillColor=none;align=left;verticalAlign=middle;whiteSpace=wrap;rounded=0;hachureGap=4;pointerEvents=0;" vertex="1" parent="Og6jKwc0oRyhOUCK2mhS-120">
          <mxGeometry x="80" y="450" width="100" height="20" as="geometry" />
        </mxCell>
        <mxCell id="Og6jKwc0oRyhOUCK2mhS-139" value="&lt;span style=&quot;font-size: 14px&quot;&gt;Số bệnh nhân trong chương trình (number)&lt;/span&gt;" style="text;html=1;strokeColor=none;fillColor=none;align=left;verticalAlign=middle;whiteSpace=wrap;rounded=0;hachureGap=4;pointerEvents=0;" vertex="1" parent="Og6jKwc0oRyhOUCK2mhS-120">
          <mxGeometry x="80" y="470" width="290" height="20" as="geometry" />
        </mxCell>
        <mxCell id="Og6jKwc0oRyhOUCK2mhS-140" value="&lt;span style=&quot;font-size: 14px&quot;&gt;Địa chỉ (text)&lt;/span&gt;" style="text;html=1;strokeColor=none;fillColor=none;align=left;verticalAlign=middle;whiteSpace=wrap;rounded=0;hachureGap=4;pointerEvents=0;" vertex="1" parent="Og6jKwc0oRyhOUCK2mhS-120">
          <mxGeometry x="80" y="490" width="100" height="20" as="geometry" />
        </mxCell>
        <mxCell id="Og6jKwc0oRyhOUCK2mhS-141" value="&lt;span style=&quot;font-size: 14px&quot;&gt;Tên liên lạc (text)&lt;/span&gt;" style="text;html=1;strokeColor=none;fillColor=none;align=left;verticalAlign=middle;whiteSpace=wrap;rounded=0;hachureGap=4;pointerEvents=0;" vertex="1" parent="Og6jKwc0oRyhOUCK2mhS-120">
          <mxGeometry x="80" y="510" width="120" height="20" as="geometry" />
        </mxCell>
        <mxCell id="Og6jKwc0oRyhOUCK2mhS-145" value="&lt;font style=&quot;font-size: 14px&quot;&gt;Điện thoại (number)&lt;/font&gt;" style="text;html=1;align=left;verticalAlign=middle;resizable=0;points=[];autosize=1;strokeColor=none;fillColor=none;" vertex="1" parent="Og6jKwc0oRyhOUCK2mhS-120">
          <mxGeometry x="80" y="530" width="140" height="20" as="geometry" />
        </mxCell>
        <mxCell id="Og6jKwc0oRyhOUCK2mhS-146" value="&lt;span style=&quot;font-size: 18px&quot;&gt;Quan hệ:&lt;/span&gt;" style="text;html=1;strokeColor=none;fillColor=none;align=left;verticalAlign=middle;whiteSpace=wrap;rounded=0;hachureGap=4;pointerEvents=0;" vertex="1" parent="Og6jKwc0oRyhOUCK2mhS-120">
          <mxGeometry x="80" y="570" width="90" height="20" as="geometry" />
        </mxCell>
        <mxCell id="Og6jKwc0oRyhOUCK2mhS-147" value="&lt;span style=&quot;font-size: 14px&quot;&gt;Khái quát :&amp;nbsp;&lt;/span&gt;" style="text;html=1;strokeColor=none;fillColor=none;align=left;verticalAlign=middle;whiteSpace=wrap;rounded=0;hachureGap=4;pointerEvents=0;" vertex="1" parent="Og6jKwc0oRyhOUCK2mhS-120">
          <mxGeometry x="80" y="600" width="100" height="20" as="geometry" />
        </mxCell>
        <mxCell id="Og6jKwc0oRyhOUCK2mhS-148" value="&lt;span style=&quot;font-size: 14px&quot;&gt;Tổng hợp&lt;/span&gt;" style="text;html=1;strokeColor=none;fillColor=none;align=left;verticalAlign=middle;whiteSpace=wrap;rounded=0;hachureGap=4;pointerEvents=0;" vertex="1" parent="Og6jKwc0oRyhOUCK2mhS-120">
          <mxGeometry x="80" y="630" width="100" height="20" as="geometry" />
        </mxCell>
        <mxCell id="Og6jKwc0oRyhOUCK2mhS-149" value="&lt;span style=&quot;font-size: 14px&quot;&gt;Liên kết khác&lt;/span&gt;" style="text;html=1;strokeColor=none;fillColor=none;align=left;verticalAlign=middle;whiteSpace=wrap;rounded=0;hachureGap=4;pointerEvents=0;" vertex="1" parent="Og6jKwc0oRyhOUCK2mhS-120">
          <mxGeometry x="80" y="660" width="120" height="20" as="geometry" />
        </mxCell>
        <mxCell id="Og6jKwc0oRyhOUCK2mhS-150" value="&lt;span style=&quot;font-size: 14px&quot;&gt;Công ty&lt;/span&gt;" style="text;html=1;strokeColor=none;fillColor=none;align=left;verticalAlign=middle;whiteSpace=wrap;rounded=0;hachureGap=4;pointerEvents=0;" vertex="1" parent="Og6jKwc0oRyhOUCK2mhS-120">
          <mxGeometry x="200" y="600" width="100" height="20" as="geometry" />
        </mxCell>
        <mxCell id="Og6jKwc0oRyhOUCK2mhS-151" value="&lt;span style=&quot;font-size: 14px&quot;&gt;Thanh toán viện phí&lt;/span&gt;" style="text;html=1;strokeColor=none;fillColor=none;align=left;verticalAlign=middle;whiteSpace=wrap;rounded=0;hachureGap=4;pointerEvents=0;" vertex="1" parent="Og6jKwc0oRyhOUCK2mhS-120">
          <mxGeometry x="200" y="660" width="170" height="20" as="geometry" />
        </mxCell>
        <mxCell id="Og6jKwc0oRyhOUCK2mhS-152" value="&lt;span style=&quot;font-size: 14px&quot;&gt;Danh sách bệnh nhân trong chương trình&lt;/span&gt;" style="text;html=1;strokeColor=none;fillColor=none;align=left;verticalAlign=middle;whiteSpace=wrap;rounded=0;hachureGap=4;pointerEvents=0;" vertex="1" parent="Og6jKwc0oRyhOUCK2mhS-120">
          <mxGeometry x="200" y="630" width="260" height="20" as="geometry" />
        </mxCell>
        <mxCell id="Og6jKwc0oRyhOUCK2mhS-153" value="&lt;font style=&quot;font-size: 14px&quot;&gt;Mặt Trước&lt;/font&gt;" style="text;html=1;strokeColor=none;fillColor=none;align=left;verticalAlign=middle;whiteSpace=wrap;rounded=0;hachureGap=4;pointerEvents=0;" vertex="1" parent="Og6jKwc0oRyhOUCK2mhS-120">
          <mxGeometry x="40" y="10" width="110" height="20" as="geometry" />
        </mxCell>
        <mxCell id="Og6jKwc0oRyhOUCK2mhS-154" value="&lt;font style=&quot;font-size: 14px&quot;&gt;Mặt Sau&lt;/font&gt;" style="text;html=1;strokeColor=none;fillColor=none;align=left;verticalAlign=middle;whiteSpace=wrap;rounded=0;hachureGap=4;pointerEvents=0;" vertex="1" parent="Og6jKwc0oRyhOUCK2mhS-120">
          <mxGeometry x="40" y="375" width="110" height="20" as="geometry" />
        </mxCell>
        <mxCell id="Og6jKwc0oRyhOUCK2mhS-156" value="&lt;font style=&quot;font-size: 18px&quot;&gt;Trách nhiệm:&lt;/font&gt;" style="text;html=1;strokeColor=none;fillColor=none;align=center;verticalAlign=middle;whiteSpace=wrap;rounded=0;hachureGap=4;pointerEvents=0;" vertex="1" parent="Og6jKwc0oRyhOUCK2mhS-120">
          <mxGeometry x="100" y="150" width="120" height="20" as="geometry" />
        </mxCell>
        <mxCell id="Og6jKwc0oRyhOUCK2mhS-157" value="&lt;span style=&quot;font-size: 14px&quot;&gt;Thanh toán viện phí&lt;/span&gt;" style="text;html=1;strokeColor=none;fillColor=none;align=left;verticalAlign=middle;whiteSpace=wrap;rounded=0;hachureGap=4;pointerEvents=0;" vertex="1" parent="Og6jKwc0oRyhOUCK2mhS-120">
          <mxGeometry x="120" y="190" width="160" height="20" as="geometry" />
        </mxCell>
        <mxCell id="Og6jKwc0oRyhOUCK2mhS-158" value="&lt;span style=&quot;font-size: 14px&quot;&gt;Làm thủ tục đăng ký bảo hiểm&lt;/span&gt;" style="text;html=1;strokeColor=none;fillColor=none;align=left;verticalAlign=middle;whiteSpace=wrap;rounded=0;hachureGap=4;pointerEvents=0;" vertex="1" parent="Og6jKwc0oRyhOUCK2mhS-120">
          <mxGeometry x="120" y="210" width="200" height="20" as="geometry" />
        </mxCell>
        <mxCell id="Og6jKwc0oRyhOUCK2mhS-159" value="&lt;span style=&quot;font-size: 14px&quot;&gt;Thu tiền bảo hiểm hàng năm&lt;/span&gt;" style="text;html=1;strokeColor=none;fillColor=none;align=left;verticalAlign=middle;whiteSpace=wrap;rounded=0;hachureGap=4;pointerEvents=0;" vertex="1" parent="Og6jKwc0oRyhOUCK2mhS-120">
          <mxGeometry x="120" y="230" width="200" height="20" as="geometry" />
        </mxCell>
        <mxCell id="Og6jKwc0oRyhOUCK2mhS-161" value="&lt;font style=&quot;font-size: 18px&quot;&gt;Cộng tác:&lt;/font&gt;" style="text;html=1;strokeColor=none;fillColor=none;align=center;verticalAlign=middle;whiteSpace=wrap;rounded=0;hachureGap=4;pointerEvents=0;" vertex="1" parent="Og6jKwc0oRyhOUCK2mhS-120">
          <mxGeometry x="540" y="150" width="120" height="20" as="geometry" />
        </mxCell>
        <mxCell id="Og6jKwc0oRyhOUCK2mhS-162" value="&lt;span style=&quot;font-size: 14px&quot;&gt;Thanh toán&lt;/span&gt;" style="text;html=1;strokeColor=none;fillColor=none;align=left;verticalAlign=middle;whiteSpace=wrap;rounded=0;hachureGap=4;pointerEvents=0;" vertex="1" parent="Og6jKwc0oRyhOUCK2mhS-120">
          <mxGeometry x="560" y="190" width="160" height="20" as="geometry" />
        </mxCell>
        <mxCell id="Og6jKwc0oRyhOUCK2mhS-239" value="" style="group" vertex="1" connectable="0" parent="1">
          <mxGeometry x="120" y="1800" width="920" height="760" as="geometry" />
        </mxCell>
        <mxCell id="Og6jKwc0oRyhOUCK2mhS-240" value="" style="rounded=0;whiteSpace=wrap;html=1;hachureGap=4;pointerEvents=0;" vertex="1" parent="Og6jKwc0oRyhOUCK2mhS-239">
          <mxGeometry width="920" height="760" as="geometry" />
        </mxCell>
        <mxCell id="Og6jKwc0oRyhOUCK2mhS-241" value="" style="rounded=0;whiteSpace=wrap;html=1;hachureGap=4;pointerEvents=0;" vertex="1" parent="Og6jKwc0oRyhOUCK2mhS-239">
          <mxGeometry x="320" y="40" width="280" height="40" as="geometry" />
        </mxCell>
        <mxCell id="Og6jKwc0oRyhOUCK2mhS-242" value="Tên lớp: Bác sĩ" style="rounded=0;whiteSpace=wrap;html=1;hachureGap=4;pointerEvents=0;align=left;" vertex="1" parent="Og6jKwc0oRyhOUCK2mhS-239">
          <mxGeometry x="40" y="40" width="280" height="40" as="geometry" />
        </mxCell>
        <mxCell id="Og6jKwc0oRyhOUCK2mhS-243" value="" style="rounded=0;whiteSpace=wrap;html=1;hachureGap=4;pointerEvents=0;" vertex="1" parent="Og6jKwc0oRyhOUCK2mhS-239">
          <mxGeometry x="600" y="40" width="280" height="40" as="geometry" />
        </mxCell>
        <mxCell id="Og6jKwc0oRyhOUCK2mhS-244" value="Mô tả: Tư vấn, khám, chữa cho bệnh nhân" style="rounded=0;whiteSpace=wrap;html=1;hachureGap=4;pointerEvents=0;" vertex="1" parent="Og6jKwc0oRyhOUCK2mhS-239">
          <mxGeometry x="40" y="80" width="560" height="40" as="geometry" />
        </mxCell>
        <mxCell id="Og6jKwc0oRyhOUCK2mhS-245" value="" style="rounded=0;whiteSpace=wrap;html=1;hachureGap=4;pointerEvents=0;" vertex="1" parent="Og6jKwc0oRyhOUCK2mhS-239">
          <mxGeometry x="600" y="80" width="280" height="40" as="geometry" />
        </mxCell>
        <mxCell id="Og6jKwc0oRyhOUCK2mhS-246" value="&lt;blockquote style=&quot;margin: 0 0 0 40px ; border: none ; padding: 0px&quot;&gt;&lt;blockquote style=&quot;margin: 0 0 0 40px ; border: none ; padding: 0px&quot;&gt;&lt;blockquote style=&quot;margin: 0 0 0 40px ; border: none ; padding: 0px&quot;&gt;&lt;br&gt;&lt;/blockquote&gt;&lt;/blockquote&gt;&lt;/blockquote&gt;" style="rounded=0;whiteSpace=wrap;html=1;hachureGap=4;pointerEvents=0;align=left;" vertex="1" parent="Og6jKwc0oRyhOUCK2mhS-239">
          <mxGeometry x="40" y="120" width="420" height="240" as="geometry" />
        </mxCell>
        <mxCell id="Og6jKwc0oRyhOUCK2mhS-247" value="&lt;div style=&quot;text-align: left&quot;&gt;&lt;br&gt;&lt;/div&gt;" style="rounded=0;whiteSpace=wrap;html=1;hachureGap=4;pointerEvents=0;" vertex="1" parent="Og6jKwc0oRyhOUCK2mhS-239">
          <mxGeometry x="460" y="120" width="420" height="240" as="geometry" />
        </mxCell>
        <mxCell id="Og6jKwc0oRyhOUCK2mhS-248" value="" style="rounded=0;whiteSpace=wrap;html=1;hachureGap=4;pointerEvents=0;" vertex="1" parent="Og6jKwc0oRyhOUCK2mhS-239">
          <mxGeometry x="320" y="40" width="280" height="40" as="geometry" />
        </mxCell>
        <mxCell id="Og6jKwc0oRyhOUCK2mhS-249" value="" style="rounded=0;whiteSpace=wrap;html=1;hachureGap=4;pointerEvents=0;" vertex="1" parent="Og6jKwc0oRyhOUCK2mhS-239">
          <mxGeometry x="600" y="40" width="280" height="40" as="geometry" />
        </mxCell>
        <mxCell id="Og6jKwc0oRyhOUCK2mhS-250" value="ID:3" style="rounded=0;whiteSpace=wrap;html=1;hachureGap=4;pointerEvents=0;align=left;" vertex="1" parent="Og6jKwc0oRyhOUCK2mhS-239">
          <mxGeometry x="320" y="40" width="280" height="40" as="geometry" />
        </mxCell>
        <mxCell id="Og6jKwc0oRyhOUCK2mhS-251" value="Kiểu: Cụ thể, miền" style="rounded=0;whiteSpace=wrap;html=1;hachureGap=4;pointerEvents=0;align=left;" vertex="1" parent="Og6jKwc0oRyhOUCK2mhS-239">
          <mxGeometry x="600" y="40" width="280" height="40" as="geometry" />
        </mxCell>
        <mxCell id="Og6jKwc0oRyhOUCK2mhS-252" value="" style="rounded=0;whiteSpace=wrap;html=1;hachureGap=4;pointerEvents=0;" vertex="1" parent="Og6jKwc0oRyhOUCK2mhS-239">
          <mxGeometry x="600" y="80" width="280" height="40" as="geometry" />
        </mxCell>
        <mxCell id="Og6jKwc0oRyhOUCK2mhS-253" value="THSD liên kết 2" style="rounded=0;whiteSpace=wrap;html=1;hachureGap=4;pointerEvents=0;" vertex="1" parent="Og6jKwc0oRyhOUCK2mhS-239">
          <mxGeometry x="600" y="80" width="280" height="40" as="geometry" />
        </mxCell>
        <mxCell id="Og6jKwc0oRyhOUCK2mhS-254" value="" style="rounded=0;whiteSpace=wrap;html=1;hachureGap=4;pointerEvents=0;" vertex="1" parent="Og6jKwc0oRyhOUCK2mhS-239">
          <mxGeometry x="40" y="400" width="840" height="160" as="geometry" />
        </mxCell>
        <mxCell id="Og6jKwc0oRyhOUCK2mhS-255" value="" style="rounded=0;whiteSpace=wrap;html=1;hachureGap=4;pointerEvents=0;" vertex="1" parent="Og6jKwc0oRyhOUCK2mhS-239">
          <mxGeometry x="40" y="560" width="840" height="160" as="geometry" />
        </mxCell>
        <mxCell id="Og6jKwc0oRyhOUCK2mhS-256" value="&lt;font style=&quot;font-size: 18px&quot;&gt;Thuộc tính:&lt;/font&gt;" style="text;html=1;strokeColor=none;fillColor=none;align=center;verticalAlign=middle;whiteSpace=wrap;rounded=0;hachureGap=4;pointerEvents=0;" vertex="1" parent="Og6jKwc0oRyhOUCK2mhS-239">
          <mxGeometry x="60" y="410" width="120" height="20" as="geometry" />
        </mxCell>
        <mxCell id="Og6jKwc0oRyhOUCK2mhS-257" value="&lt;span style=&quot;font-size: 14px&quot;&gt;Tên (text)&lt;/span&gt;" style="text;html=1;strokeColor=none;fillColor=none;align=left;verticalAlign=middle;whiteSpace=wrap;rounded=0;hachureGap=4;pointerEvents=0;" vertex="1" parent="Og6jKwc0oRyhOUCK2mhS-239">
          <mxGeometry x="80" y="450" width="100" height="20" as="geometry" />
        </mxCell>
        <mxCell id="Og6jKwc0oRyhOUCK2mhS-258" value="&lt;span style=&quot;font-size: 14px&quot;&gt;Số thẻ (number)&lt;/span&gt;" style="text;html=1;strokeColor=none;fillColor=none;align=left;verticalAlign=middle;whiteSpace=wrap;rounded=0;hachureGap=4;pointerEvents=0;" vertex="1" parent="Og6jKwc0oRyhOUCK2mhS-239">
          <mxGeometry x="80" y="470" width="290" height="20" as="geometry" />
        </mxCell>
        <mxCell id="Og6jKwc0oRyhOUCK2mhS-259" value="&lt;span style=&quot;font-size: 14px&quot;&gt;Chuyên khoa (text)&lt;/span&gt;" style="text;html=1;strokeColor=none;fillColor=none;align=left;verticalAlign=middle;whiteSpace=wrap;rounded=0;hachureGap=4;pointerEvents=0;" vertex="1" parent="Og6jKwc0oRyhOUCK2mhS-239">
          <mxGeometry x="80" y="490" width="140" height="20" as="geometry" />
        </mxCell>
        <mxCell id="Og6jKwc0oRyhOUCK2mhS-261" value="&lt;font style=&quot;font-size: 14px&quot;&gt;Điện thoại (number)&lt;/font&gt;" style="text;html=1;align=left;verticalAlign=middle;resizable=0;points=[];autosize=1;strokeColor=none;fillColor=none;" vertex="1" parent="Og6jKwc0oRyhOUCK2mhS-239">
          <mxGeometry x="80" y="510" width="140" height="20" as="geometry" />
        </mxCell>
        <mxCell id="Og6jKwc0oRyhOUCK2mhS-262" value="&lt;span style=&quot;font-size: 18px&quot;&gt;Quan hệ:&lt;/span&gt;" style="text;html=1;strokeColor=none;fillColor=none;align=left;verticalAlign=middle;whiteSpace=wrap;rounded=0;hachureGap=4;pointerEvents=0;" vertex="1" parent="Og6jKwc0oRyhOUCK2mhS-239">
          <mxGeometry x="80" y="570" width="90" height="20" as="geometry" />
        </mxCell>
        <mxCell id="Og6jKwc0oRyhOUCK2mhS-263" value="&lt;span style=&quot;font-size: 14px&quot;&gt;Khái quát :&amp;nbsp;&lt;/span&gt;" style="text;html=1;strokeColor=none;fillColor=none;align=left;verticalAlign=middle;whiteSpace=wrap;rounded=0;hachureGap=4;pointerEvents=0;" vertex="1" parent="Og6jKwc0oRyhOUCK2mhS-239">
          <mxGeometry x="80" y="600" width="100" height="20" as="geometry" />
        </mxCell>
        <mxCell id="Og6jKwc0oRyhOUCK2mhS-264" value="&lt;span style=&quot;font-size: 14px&quot;&gt;Tổng hợp&lt;/span&gt;" style="text;html=1;strokeColor=none;fillColor=none;align=left;verticalAlign=middle;whiteSpace=wrap;rounded=0;hachureGap=4;pointerEvents=0;" vertex="1" parent="Og6jKwc0oRyhOUCK2mhS-239">
          <mxGeometry x="80" y="630" width="100" height="20" as="geometry" />
        </mxCell>
        <mxCell id="Og6jKwc0oRyhOUCK2mhS-265" value="&lt;span style=&quot;font-size: 14px&quot;&gt;Liên kết khác&lt;/span&gt;" style="text;html=1;strokeColor=none;fillColor=none;align=left;verticalAlign=middle;whiteSpace=wrap;rounded=0;hachureGap=4;pointerEvents=0;" vertex="1" parent="Og6jKwc0oRyhOUCK2mhS-239">
          <mxGeometry x="80" y="660" width="120" height="20" as="geometry" />
        </mxCell>
        <mxCell id="Og6jKwc0oRyhOUCK2mhS-266" value="&lt;span style=&quot;font-size: 14px&quot;&gt;Công ty&lt;/span&gt;" style="text;html=1;strokeColor=none;fillColor=none;align=left;verticalAlign=middle;whiteSpace=wrap;rounded=0;hachureGap=4;pointerEvents=0;" vertex="1" parent="Og6jKwc0oRyhOUCK2mhS-239">
          <mxGeometry x="200" y="600" width="100" height="20" as="geometry" />
        </mxCell>
        <mxCell id="Og6jKwc0oRyhOUCK2mhS-267" value="&lt;span style=&quot;font-size: 14px&quot;&gt;Thanh toán viện phí&lt;/span&gt;" style="text;html=1;strokeColor=none;fillColor=none;align=left;verticalAlign=middle;whiteSpace=wrap;rounded=0;hachureGap=4;pointerEvents=0;" vertex="1" parent="Og6jKwc0oRyhOUCK2mhS-239">
          <mxGeometry x="200" y="660" width="170" height="20" as="geometry" />
        </mxCell>
        <mxCell id="Og6jKwc0oRyhOUCK2mhS-268" value="&lt;span style=&quot;font-size: 14px&quot;&gt;Danh sách bệnh nhân trong chương trình&lt;/span&gt;" style="text;html=1;strokeColor=none;fillColor=none;align=left;verticalAlign=middle;whiteSpace=wrap;rounded=0;hachureGap=4;pointerEvents=0;" vertex="1" parent="Og6jKwc0oRyhOUCK2mhS-239">
          <mxGeometry x="200" y="630" width="260" height="20" as="geometry" />
        </mxCell>
        <mxCell id="Og6jKwc0oRyhOUCK2mhS-269" value="&lt;font style=&quot;font-size: 14px&quot;&gt;Mặt Trước&lt;/font&gt;" style="text;html=1;strokeColor=none;fillColor=none;align=left;verticalAlign=middle;whiteSpace=wrap;rounded=0;hachureGap=4;pointerEvents=0;" vertex="1" parent="Og6jKwc0oRyhOUCK2mhS-239">
          <mxGeometry x="40" y="10" width="110" height="20" as="geometry" />
        </mxCell>
        <mxCell id="Og6jKwc0oRyhOUCK2mhS-270" value="&lt;font style=&quot;font-size: 14px&quot;&gt;Mặt Sau&lt;/font&gt;" style="text;html=1;strokeColor=none;fillColor=none;align=left;verticalAlign=middle;whiteSpace=wrap;rounded=0;hachureGap=4;pointerEvents=0;" vertex="1" parent="Og6jKwc0oRyhOUCK2mhS-239">
          <mxGeometry x="40" y="375" width="110" height="20" as="geometry" />
        </mxCell>
        <mxCell id="Og6jKwc0oRyhOUCK2mhS-271" value="&lt;font style=&quot;font-size: 18px&quot;&gt;Trách nhiệm:&lt;/font&gt;" style="text;html=1;strokeColor=none;fillColor=none;align=center;verticalAlign=middle;whiteSpace=wrap;rounded=0;hachureGap=4;pointerEvents=0;" vertex="1" parent="Og6jKwc0oRyhOUCK2mhS-239">
          <mxGeometry x="100" y="150" width="120" height="20" as="geometry" />
        </mxCell>
        <mxCell id="Og6jKwc0oRyhOUCK2mhS-272" value="&lt;span style=&quot;font-size: 14px&quot;&gt;Khám bệnh&lt;/span&gt;" style="text;html=1;strokeColor=none;fillColor=none;align=left;verticalAlign=middle;whiteSpace=wrap;rounded=0;hachureGap=4;pointerEvents=0;" vertex="1" parent="Og6jKwc0oRyhOUCK2mhS-239">
          <mxGeometry x="120" y="190" width="160" height="20" as="geometry" />
        </mxCell>
        <mxCell id="Og6jKwc0oRyhOUCK2mhS-273" value="&lt;span style=&quot;font-size: 14px&quot;&gt;Chữa bệnh&lt;/span&gt;" style="text;html=1;strokeColor=none;fillColor=none;align=left;verticalAlign=middle;whiteSpace=wrap;rounded=0;hachureGap=4;pointerEvents=0;" vertex="1" parent="Og6jKwc0oRyhOUCK2mhS-239">
          <mxGeometry x="120" y="210" width="200" height="20" as="geometry" />
        </mxCell>
        <mxCell id="Og6jKwc0oRyhOUCK2mhS-274" value="&lt;span style=&quot;font-size: 14px&quot;&gt;Tư vấn cho bệnh nhân&lt;/span&gt;" style="text;html=1;strokeColor=none;fillColor=none;align=left;verticalAlign=middle;whiteSpace=wrap;rounded=0;hachureGap=4;pointerEvents=0;" vertex="1" parent="Og6jKwc0oRyhOUCK2mhS-239">
          <mxGeometry x="120" y="230" width="200" height="20" as="geometry" />
        </mxCell>
        <mxCell id="Og6jKwc0oRyhOUCK2mhS-275" value="&lt;font style=&quot;font-size: 18px&quot;&gt;Cộng tác:&lt;/font&gt;" style="text;html=1;strokeColor=none;fillColor=none;align=center;verticalAlign=middle;whiteSpace=wrap;rounded=0;hachureGap=4;pointerEvents=0;" vertex="1" parent="Og6jKwc0oRyhOUCK2mhS-239">
          <mxGeometry x="540" y="150" width="120" height="20" as="geometry" />
        </mxCell>
      </root>
    </mxGraphModel>
  </diagram>
</mxfile>
